<svg xmlns="http://www.w3.org/2000/svg" width="2000" height="2000" viewBox="0 0 2000 2000" preserveAspectRatio="none"><path stroke="rgba(255,255,255,.075)" stroke-width="2" d="M-1500 0L500 2000M-1000 0l2000 2000M-500 0l2000 2000M0 0l2000 2000M500 0l2000 2000M1000 0l2000 2000M1500 0l2000 2000M500 0l-2000 2000M1000 0l-2000 2000M1500 0L-500 2000M2000 0L0 2000M2500 0L500 2000M3000 0L1000 2000M3500 0L1500 2000M0 0h2000M0 250h2000M0 500h2000M0 750h2000M0 1000h2000M0 1250h2000M0 1500h2000M0 1750h2000"/></svg>
