<svg xmlns="http://www.w3.org/2000/svg" width="1106.669" height="353.333" viewBox="0 0 11528 3681" shape-rendering="geometricPrecision" text-rendering="geometricPrecision" image-rendering="optimizeQuality" fill-rule="evenodd" clip-rule="evenodd"><defs><style>.fil0{fill:#f79736;fill-rule:nonzero}</style></defs><g id="__x0023_Layer_x0020_1"><g id="_322509360"><path class="fil0" d="M2170 2516v-300h-302v300zM1822 2516v-300h-302v300zM2516 2516v-300h-300v300zM2864 139h-302v302h302zM3210 2170v-302h-300v302zM2864 2516v-300h-302v300zM1135 3203v-293H833v293zM1822 826h-302v302h302zM2170 826h-302v302h302zM1474 826h-293v302h293zM787 3203v-293H487v293zM2516 139h-300v302h300zM1474 3203v-293h-293v293zM2170 139h-302v302h302zM1868 2864h302v-302h-302zM1520 3546h302v-296h-302zM2216 2864h300v-302h-300zM2562 2864h302v-302h-302zM833 3546h302v-296H833zM487 3546h300v-296H487zM1868 1822h302v-300h-302zM1135 139H833v302h302zM1822 139h-302v302h302zM1474 139h-293v302h293zM441 139H139v302h302zM787 139H487v302h300zM1181 3546h293v-296h-293zM441 2562H139v302h302zM441 2910H139v293h302zM1520 3203h302v-293h-302zM441 2216H139v300h302zM441 1174H139v302h302zM441 1522H139v300h302zM441 1868H139v302h302zM1520 2864h302v-302h-302zM441 826H139v302h302zM1520 1822h302v-300h-302zM3256 1476h295v-302h-295zM3256 1128h295V826h-295zM3256 1822h295v-300h-295zM2910 2516h300v-300h-300zM3256 2170h295v-302h-295zM2910 780h300V487h-300zM1868 1476h302v-302h-302zM1474 1522h-293v300h293zM1181 2864h293v-302h-293zM2562 487v293h302V487zM441 487H139v293h302zM1520 1174v302h302v-302zM1474 1174h-293v302h293zM2910 1476h300v-302h-300zM2910 1822h300v-300h-300zM2910 1128h300V826h-300zM2562 2170h302v-302h-302zM1181 2516h293v-300h-293z"/><g><path class="fil0" d="M3930 1169c73-13 175-23 312-23 150 0 259 32 331 91 66 55 110 143 110 248 0 106-33 194-96 254-81 81-209 120-354 120-38 0-73-2-100-7v422h-203V1169zm203 522c25 7 58 8 100 8 153 0 246-75 246-206 0-125-86-191-228-191-56 0-96 5-118 10v379zM5048 1239c0 61-45 110-116 110-68 0-113-48-113-110 0-63 47-111 115-111 70 0 113 48 115 111zm-218 1035v-809h206v809h-206zM5392 1465l96 153c27 43 50 83 73 125h5c23-45 47-86 70-128l90-150h223l-271 389 276 420h-231l-100-161c-27-43-50-86-73-131h-3c-23 47-47 86-73 131l-93 161h-226l281-412-271-397h228zM6190 1927c5 146 120 209 249 209 95 0 163-13 224-37l30 141c-70 28-166 50-283 50-263 0-417-161-417-409 0-224 136-435 396-435 263 0 349 216 349 394 0 38-3 68-7 86h-542zm356-143c2-75-32-198-168-198-126 0-179 115-188 198h356zM6903 1094h206v1180h-206zM7341 1733c0-103-3-186-7-263h131l7 138h3c60-98 155-156 286-156 194 0 341 165 341 409 0 289-176 432-366 432-106 0-199-47-248-126h-3v437h-145v-871zm145 214c0 22 3 42 7 60 27 101 115 171 219 171 155 0 244-126 244-311 0-161-85-299-239-299-100 0-193 71-221 181-5 18-10 40-10 60v138zM8287 1094h146v1180h-146zM8842 1244c2 50-35 90-93 90-51 0-88-40-88-90 0-52 38-91 91-91 55 0 90 40 90 91zm-163 1030v-804h146v804h-146zM9641 2245c-38 20-123 47-231 47-243 0-401-165-401-411 0-248 170-427 432-427 86 0 163 22 203 42l-33 113c-35-20-90-38-170-38-184 0-284 136-284 304 0 186 120 301 279 301 83 0 138-22 179-40l25 110zM9975 1244c2 50-35 90-93 90-51 0-88-40-88-90 0-52 38-91 91-91 55 0 90 40 90 91zm-163 1030v-804h146v804h-146zM10378 1239v231h209v111h-209v434c0 100 28 156 110 156 38 0 66-5 85-10l7 110c-28 12-73 20-130 20-68 0-123-22-158-61-42-43-57-115-57-209v-439h-125v-111h125v-193l143-38zM10820 1470l176 475c18 53 38 116 52 165h3c15-48 32-110 52-168l160-472h155l-219 573c-105 276-176 417-276 504-72 63-143 88-180 95l-37-123c37-12 85-35 128-71 40-32 90-88 123-163 7-15 12-27 12-35s-3-20-10-38l-298-741h160z"/></g></g></g></svg>
